<?xml version="1.0" encoding="UTF-8"?>
<!DOCTYPE svg PUBLIC "-//W3C//DTD SVG 1.1//EN" "http://www.w3.org/Graphics/SVG/1.1/DTD/svg11.dtd">
<svg xmlns="http://www.w3.org/2000/svg" version="1.1" width="512px" height="512px" style="shape-rendering:geometricPrecision; text-rendering:geometricPrecision; image-rendering:optimizeQuality; fill-rule:evenodd; clip-rule:evenodd" xmlns:xlink="http://www.w3.org/1999/xlink">
<g><path style="opacity:1" fill="#b9ca5b" d="M 257.5,123.5 C 256.833,123.167 256.167,122.833 255.5,122.5C 253.824,123.183 253.157,124.517 253.5,126.5C 251.947,128.93 249.947,130.93 247.5,132.5C 249.473,128.553 251.473,124.553 253.5,120.5C 256.064,119.436 257.397,120.436 257.5,123.5 Z"/></g>
<g><path style="opacity:1" fill="#aac541" d="M 253.5,126.5 C 253.557,127.609 253.89,128.609 254.5,129.5C 253.379,131.954 252.546,134.621 252,137.5C 250.951,136.483 249.784,136.316 248.5,137C 246,138.167 244.167,140 243,142.5C 242.105,146.21 241.105,149.877 240,153.5C 235.886,154.303 233.053,156.637 231.5,160.5C 230.675,161.386 229.675,161.719 228.5,161.5C 234.588,151.654 240.921,141.987 247.5,132.5C 249.947,130.93 251.947,128.93 253.5,126.5 Z"/></g>
<g><path style="opacity:1" fill="#a5c530" d="M 254.5,129.5 C 254.71,141.883 254.043,154.217 252.5,166.5C 253.24,170.51 252.907,174.51 251.5,178.5C 249.771,179.117 248.271,180.117 247,181.5C 246.586,181.043 246.086,180.709 245.5,180.5C 244.833,181.5 244.167,182.5 243.5,183.5C 240.377,179.922 236.377,178.589 231.5,179.5C 231.67,176.509 230.337,174.509 227.5,173.5C 226.614,172.675 226.281,171.675 226.5,170.5C 225.448,170.649 224.448,170.483 223.5,170C 226.057,167.724 227.724,164.89 228.5,161.5C 229.675,161.719 230.675,161.386 231.5,160.5C 233.053,156.637 235.886,154.303 240,153.5C 241.105,149.877 242.105,146.21 243,142.5C 244.167,140 246,138.167 248.5,137C 249.784,136.316 250.951,136.483 252,137.5C 252.546,134.621 253.379,131.954 254.5,129.5 Z"/></g>
<g><path style="opacity:1" fill="#d9d82f" d="M 264.5,134.5 C 274.557,146.933 283.89,159.933 292.5,173.5C 292.446,178.435 293.946,182.769 297,186.5C 297.667,188.5 297.667,190.5 297,192.5C 296.259,193.641 295.425,193.641 294.5,192.5C 293.667,193.5 292.833,194.5 292,195.5C 290.667,193.833 289.333,192.167 288,190.5C 285.915,191.647 284.415,190.98 283.5,188.5C 282.21,190.657 281.376,192.99 281,195.5C 279.417,193.007 277.917,193.174 276.5,196C 274.866,196.494 273.199,196.66 271.5,196.5C 270.313,194.095 268.813,191.761 267,189.5C 264.822,195.751 263.489,195.751 263,189.5C 262.667,190.833 262.333,192.167 262,193.5C 261.01,189.459 260.844,185.459 261.5,181.5C 261.297,179.792 260.464,178.459 259,177.5C 258.713,171.976 258.213,166.476 257.5,161C 259.353,150.96 259.353,140.96 257.5,131C 257.667,130.167 257.833,129.333 258,128.5C 259.731,131.068 261.898,133.068 264.5,134.5 Z"/></g>
<g><path style="opacity:1" fill="#a1c335" d="M 228.5,161.5 C 227.724,164.89 226.057,167.724 223.5,170C 224.448,170.483 225.448,170.649 226.5,170.5C 226.281,171.675 226.614,172.675 227.5,173.5C 230.337,174.509 231.67,176.509 231.5,179.5C 236.377,178.589 240.377,179.922 243.5,183.5C 244.167,182.5 244.833,181.5 245.5,180.5C 246.086,180.709 246.586,181.043 247,181.5C 248.271,180.117 249.771,179.117 251.5,178.5C 251.093,183.167 250.26,187.5 249,191.5C 248.586,191.957 248.086,192.291 247.5,192.5C 246.548,190.955 246.215,189.288 246.5,187.5C 243.98,188.232 241.646,189.398 239.5,191C 240.448,191.483 241.448,191.649 242.5,191.5C 242.5,194.167 242.5,196.833 242.5,199.5C 241.5,199.5 240.5,199.5 239.5,199.5C 239.657,198.127 239.49,196.793 239,195.5C 236.772,196.299 235.439,195.299 235,192.5C 234.667,193.167 234.333,193.833 234,194.5C 232.956,192.285 232.29,189.952 232,187.5C 231.51,188.793 231.343,190.127 231.5,191.5C 229.876,191.36 228.71,192.027 228,193.5C 227.586,193.043 227.086,192.709 226.5,192.5C 224.492,196.108 221.992,196.442 219,193.5C 217.129,194.668 215.629,194.168 214.5,192C 216.929,191.549 217.096,190.715 215,189.5C 214.505,187.527 214.338,185.527 214.5,183.5C 218.171,175.481 222.838,168.148 228.5,161.5 Z"/></g>
<g><path style="opacity:1" fill="#d6d233" d="M 255.5,122.5 C 256.167,122.833 256.833,123.167 257.5,123.5C 260.08,126.989 262.413,130.656 264.5,134.5C 261.898,133.068 259.731,131.068 258,128.5C 257.833,129.333 257.667,130.167 257.5,131C 259.353,140.96 259.353,150.96 257.5,161C 258.213,166.476 258.713,171.976 259,177.5C 260.464,178.459 261.297,179.792 261.5,181.5C 260.844,185.459 261.01,189.459 262,193.5C 262.333,192.167 262.667,190.833 263,189.5C 263.489,195.751 264.822,195.751 267,189.5C 268.813,191.761 270.313,194.095 271.5,196.5C 273.199,196.66 274.866,196.494 276.5,196C 277.917,193.174 279.417,193.007 281,195.5C 281.376,192.99 282.21,190.657 283.5,188.5C 284.415,190.98 285.915,191.647 288,190.5C 289.333,192.167 290.667,193.833 292,195.5C 292.833,194.5 293.667,193.5 294.5,192.5C 295.425,193.641 296.259,193.641 297,192.5C 297.667,190.5 297.667,188.5 297,186.5C 293.946,182.769 292.446,178.435 292.5,173.5C 297.255,180.004 301.255,187.004 304.5,194.5C 304.62,197.48 305.287,200.313 306.5,203C 305.378,204.613 305.878,205.78 308,206.5C 309.664,209.658 310.831,212.991 311.5,216.5C 308.64,217.18 306.14,218.513 304,220.5C 300.422,219.309 296.755,218.309 293,217.5C 291.019,217.629 289.353,218.296 288,219.5C 286.667,217.833 285.333,216.167 284,214.5C 282.933,216.283 281.433,216.783 279.5,216C 276.732,214.238 275.232,211.738 275,208.5C 273.667,209.833 272.333,209.833 271,208.5C 269.513,209.253 269.346,210.086 270.5,211C 268.579,211.36 266.912,212.194 265.5,213.5C 264.614,212.675 264.281,211.675 264.5,210.5C 262.328,209.794 260.328,208.794 258.5,207.5C 258.461,192.982 257.795,178.649 256.5,164.5C 256.743,150.475 256.409,136.475 255.5,122.5 Z"/></g>
<g><path style="opacity:1" fill="#9cbd36" d="M 255.5,122.5 C 256.409,136.475 256.743,150.475 256.5,164.5C 256.5,168.167 256.5,171.833 256.5,175.5C 255.669,189.994 255.169,204.661 255,219.5C 251.962,216.631 249.129,213.631 246.5,210.5C 244.471,208.142 242.471,205.808 240.5,203.5C 239.438,201.243 237.772,200.077 235.5,200C 236.167,200.667 236.833,201.333 237.5,202C 237.325,205.809 237.325,209.975 237.5,214.5C 238.833,215.5 240.167,216.5 241.5,217.5C 241.154,218.696 240.654,218.696 240,217.5C 239.261,218.574 238.261,219.241 237,219.5C 234.865,218.873 232.698,218.373 230.5,218C 230.847,216.431 231.014,214.598 231,212.5C 229.49,214.208 227.99,215.874 226.5,217.5C 222.889,216.738 219.222,216.238 215.5,216C 217.271,215.465 217.604,214.631 216.5,213.5C 214.012,213.274 211.512,213.94 209,215.5C 208,214.833 207,214.167 206,213.5C 204.862,213.989 203.695,214.322 202.5,214.5C 203.403,211.609 203.736,208.609 203.5,205.5C 206.132,197.57 209.798,190.237 214.5,183.5C 214.338,185.527 214.505,187.527 215,189.5C 217.096,190.715 216.929,191.549 214.5,192C 215.629,194.168 217.129,194.668 219,193.5C 221.992,196.442 224.492,196.108 226.5,192.5C 227.086,192.709 227.586,193.043 228,193.5C 228.71,192.027 229.876,191.36 231.5,191.5C 231.343,190.127 231.51,188.793 232,187.5C 232.29,189.952 232.956,192.285 234,194.5C 234.333,193.833 234.667,193.167 235,192.5C 235.439,195.299 236.772,196.299 239,195.5C 239.49,196.793 239.657,198.127 239.5,199.5C 240.5,199.5 241.5,199.5 242.5,199.5C 242.5,196.833 242.5,194.167 242.5,191.5C 241.448,191.649 240.448,191.483 239.5,191C 241.646,189.398 243.98,188.232 246.5,187.5C 246.215,189.288 246.548,190.955 247.5,192.5C 248.086,192.291 248.586,191.957 249,191.5C 250.26,187.5 251.093,183.167 251.5,178.5C 252.907,174.51 253.24,170.51 252.5,166.5C 254.043,154.217 254.71,141.883 254.5,129.5C 253.89,128.609 253.557,127.609 253.5,126.5C 253.157,124.517 253.824,123.183 255.5,122.5 Z"/></g>
<g><path style="opacity:1" fill="#d1cb35" d="M 304.5,194.5 C 307.596,199.437 309.929,204.77 311.5,210.5C 311.952,214.546 312.619,218.546 313.5,222.5C 313.663,224.857 313.497,227.19 313,229.5C 310.316,230.068 307.816,231.068 305.5,232.5C 303.868,231.703 302.368,230.703 301,229.5C 298.976,229.8 298.476,230.633 299.5,232C 297.559,232.743 295.726,232.576 294,231.5C 292.04,234.146 290.04,234.146 288,231.5C 285.918,232.461 284.085,233.794 282.5,235.5C 280.844,233.978 279.677,234.311 279,236.5C 276.281,235.556 273.448,235.223 270.5,235.5C 271.256,227.044 272.422,218.711 274,210.5C 272.833,212.833 271.667,215.167 270.5,217.5C 269.609,218.59 268.609,218.59 267.5,217.5C 265.703,219.131 264.536,221.131 264,223.5C 259.213,219.944 257.38,214.611 258.5,207.5C 260.328,208.794 262.328,209.794 264.5,210.5C 264.281,211.675 264.614,212.675 265.5,213.5C 266.912,212.194 268.579,211.36 270.5,211C 269.346,210.086 269.513,209.253 271,208.5C 272.333,209.833 273.667,209.833 275,208.5C 275.232,211.738 276.732,214.238 279.5,216C 281.433,216.783 282.933,216.283 284,214.5C 285.333,216.167 286.667,217.833 288,219.5C 289.353,218.296 291.019,217.629 293,217.5C 296.755,218.309 300.422,219.309 304,220.5C 306.14,218.513 308.64,217.18 311.5,216.5C 310.831,212.991 309.664,209.658 308,206.5C 305.878,205.78 305.378,204.613 306.5,203C 305.287,200.313 304.62,197.48 304.5,194.5 Z"/></g>
<g><path style="opacity:1" fill="#94b836" d="M 240.5,203.5 C 239.957,203.56 239.624,203.893 239.5,204.5C 242.158,207.017 242.825,209.517 241.5,212C 244.013,215.206 246.347,218.539 248.5,222C 249.566,224.315 249.566,226.981 248.5,230C 249.885,231.597 250.551,233.43 250.5,235.5C 248.885,236.919 246.385,237.919 243,238.5C 236.752,236.427 230.585,234.094 224.5,231.5C 223.468,233.04 222.135,233.54 220.5,233C 221.833,232.333 221.833,231.667 220.5,231C 224.333,229.631 223.999,228.797 219.5,228.5C 218.167,228.833 216.833,229.167 215.5,229.5C 217.748,230.324 217.914,231.324 216,232.5C 213.595,231.726 211.095,231.226 208.5,231C 209.833,230.667 211.167,230.333 212.5,230C 208.639,227.931 204.972,225.765 201.5,223.5C 201.963,220.518 202.296,217.518 202.5,214.5C 203.695,214.322 204.862,213.989 206,213.5C 207,214.167 208,214.833 209,215.5C 211.512,213.94 214.012,213.274 216.5,213.5C 217.604,214.631 217.271,215.465 215.5,216C 219.222,216.238 222.889,216.738 226.5,217.5C 227.99,215.874 229.49,214.208 231,212.5C 231.014,214.598 230.847,216.431 230.5,218C 232.698,218.373 234.865,218.873 237,219.5C 238.261,219.241 239.261,218.574 240,217.5C 240.654,218.696 241.154,218.696 241.5,217.5C 240.167,216.5 238.833,215.5 237.5,214.5C 237.325,209.975 237.325,205.809 237.5,202C 236.833,201.333 236.167,200.667 235.5,200C 237.772,200.077 239.438,201.243 240.5,203.5 Z"/></g>
<g><path style="opacity:1" fill="#efde95" d="M 378.5,227.5 C 379.568,226.566 380.901,226.232 382.5,226.5C 382.795,228.735 382.461,230.735 381.5,232.5C 381.5,230.833 381.5,229.167 381.5,227.5C 380.5,227.5 379.5,227.5 378.5,227.5 Z"/></g>
<g><path style="opacity:1" fill="#d1cc50" d="M 311.5,210.5 C 315.533,219.637 317.867,229.304 318.5,239.5C 317.209,239.737 316.209,239.404 315.5,238.5C 316.097,238.265 316.43,237.765 316.5,237C 315.056,232.145 314.056,227.311 313.5,222.5C 312.619,218.546 311.952,214.546 311.5,210.5 Z"/></g>
<g><path style="opacity:1" fill="#5ea341" d="M 139.5,229.5 C 147.233,230.033 154.899,231.033 162.5,232.5C 166.659,234.393 170.826,236.393 175,238.5C 175.561,237.978 176.228,237.645 177,237.5C 183.386,239.278 189.886,240.278 196.5,240.5C 199.055,241.461 201.388,242.794 203.5,244.5C 201.184,243.84 198.851,243.173 196.5,242.5C 194.853,243.278 193.52,244.444 192.5,246C 192.833,246.333 193.167,246.667 193.5,247C 192.643,247.689 191.977,248.522 191.5,249.5C 192.382,256.324 192.548,263.324 192,270.5C 189.109,275.348 185.776,276.014 182,272.5C 179.984,274.791 177.817,274.791 175.5,272.5C 173.509,268.831 170.509,266.497 166.5,265.5C 165.5,264.833 164.5,264.167 163.5,263.5C 155.278,251.939 145.945,241.273 135.5,231.5C 136.183,229.824 137.517,229.157 139.5,229.5 Z"/></g>
<g><path style="opacity:1" fill="#cac335" d="M 256.5,164.5 C 257.795,178.649 258.461,192.982 258.5,207.5C 257.38,214.611 259.213,219.944 264,223.5C 264.536,221.131 265.703,219.131 267.5,217.5C 268.609,218.59 269.609,218.59 270.5,217.5C 271.667,215.167 272.833,212.833 274,210.5C 272.422,218.711 271.256,227.044 270.5,235.5C 273.448,235.223 276.281,235.556 279,236.5C 279.677,234.311 280.844,233.978 282.5,235.5C 284.085,233.794 285.918,232.461 288,231.5C 290.04,234.146 292.04,234.146 294,231.5C 295.726,232.576 297.559,232.743 299.5,232C 298.476,230.633 298.976,229.8 301,229.5C 302.368,230.703 303.868,231.703 305.5,232.5C 307.816,231.068 310.316,230.068 313,229.5C 313.497,227.19 313.663,224.857 313.5,222.5C 314.056,227.311 315.056,232.145 316.5,237C 316.43,237.765 316.097,238.265 315.5,238.5C 307.748,242.353 300.081,246.353 292.5,250.5C 291.687,249.347 290.687,249.347 289.5,250.5C 288.808,249.975 288.308,249.308 288,248.5C 286.732,248.616 285.398,248.949 284,249.5C 283.009,248.57 282.509,247.404 282.5,246C 282.95,244.45 283.117,242.95 283,241.5C 278.184,245.579 272.851,248.913 267,251.5C 265.667,250.833 264.667,249.833 264,248.5C 263.667,248.833 263.333,249.167 263,249.5C 261.607,244.905 261.274,240.239 262,235.5C 265.429,231.228 268.262,226.562 270.5,221.5C 270.154,220.304 269.654,220.304 269,221.5C 266.321,227.529 262.654,232.862 258,237.5C 257.831,225.659 257.331,213.993 256.5,202.5C 256.5,193.5 256.5,184.5 256.5,175.5C 256.5,171.833 256.5,168.167 256.5,164.5 Z"/></g>
<g><path style="opacity:1" fill="#90b33a" d="M 240.5,203.5 C 242.471,205.808 244.471,208.142 246.5,210.5C 245.957,210.56 245.624,210.893 245.5,211.5C 246.098,212.795 246.598,214.128 247,215.5C 249.513,218.695 251.846,222.028 254,225.5C 254.4,232.763 253.9,239.93 252.5,247C 252.833,247.333 253.167,247.667 253.5,248C 252.619,248.708 251.953,249.542 251.5,250.5C 251.656,251.498 251.156,252.498 250,253.5C 244.978,250.938 240.478,247.604 236.5,243.5C 234.798,240.605 232.464,238.772 229.5,238C 230,238.5 230.5,239 231,239.5C 231.667,242.833 231.667,246.167 231,249.5C 228.53,247.269 226.197,247.269 224,249.5C 223.596,246.057 221.929,244.724 219,245.5C 217.833,244.333 216.667,243.167 215.5,242C 209.742,241.301 204.242,239.801 199,237.5C 198.667,237.833 198.333,238.167 198,238.5C 198.632,235.974 198.465,233.474 197.5,231C 199.148,226.683 199.814,222.183 199.5,217.5C 199.861,213.085 201.194,209.085 203.5,205.5C 203.736,208.609 203.403,211.609 202.5,214.5C 202.296,217.518 201.963,220.518 201.5,223.5C 204.972,225.765 208.639,227.931 212.5,230C 211.167,230.333 209.833,230.667 208.5,231C 211.095,231.226 213.595,231.726 216,232.5C 217.914,231.324 217.748,230.324 215.5,229.5C 216.833,229.167 218.167,228.833 219.5,228.5C 223.999,228.797 224.333,229.631 220.5,231C 221.833,231.667 221.833,232.333 220.5,233C 222.135,233.54 223.468,233.04 224.5,231.5C 230.585,234.094 236.752,236.427 243,238.5C 246.385,237.919 248.885,236.919 250.5,235.5C 250.551,233.43 249.885,231.597 248.5,230C 249.566,226.981 249.566,224.315 248.5,222C 246.347,218.539 244.013,215.206 241.5,212C 242.825,209.517 242.158,207.017 239.5,204.5C 239.624,203.893 239.957,203.56 240.5,203.5 Z"/></g>
<g><path style="opacity:1" fill="#8fa82f" d="M 256.5,175.5 C 256.5,184.5 256.5,193.5 256.5,202.5C 256.704,224.169 257.037,245.836 257.5,267.5C 256.715,265.626 256.048,263.626 255.5,261.5C 255.824,257.445 255.491,253.445 254.5,249.5C 253.583,250.127 252.583,250.461 251.5,250.5C 251.953,249.542 252.619,248.708 253.5,248C 253.167,247.667 252.833,247.333 252.5,247C 253.9,239.93 254.4,232.763 254,225.5C 251.846,222.028 249.513,218.695 247,215.5C 246.598,214.128 246.098,212.795 245.5,211.5C 245.624,210.893 245.957,210.56 246.5,210.5C 249.129,213.631 251.962,216.631 255,219.5C 255.169,204.661 255.669,189.994 256.5,175.5 Z"/></g>
<g><path style="opacity:1" fill="#f2d558" d="M 378.5,227.5 C 379.5,227.5 380.5,227.5 381.5,227.5C 381.5,229.167 381.5,230.833 381.5,232.5C 381.737,233.791 381.404,234.791 380.5,235.5C 380.5,233.833 380.5,232.167 380.5,230.5C 380.158,229.662 379.492,229.328 378.5,229.5C 370.827,230.201 363.16,231.034 355.5,232C 346.991,234.558 338.324,236.391 329.5,237.5C 332.503,235.738 335.837,234.572 339.5,234C 352.422,231.321 365.422,229.154 378.5,227.5 Z"/></g>
<g><path style="opacity:1" fill="#6fa752" d="M 162.5,232.5 C 173.3,234.326 183.967,236.66 194.5,239.5C 194.205,237.265 194.539,235.265 195.5,233.5C 195.298,235.95 195.631,238.283 196.5,240.5C 189.886,240.278 183.386,239.278 177,237.5C 176.228,237.645 175.561,237.978 175,238.5C 170.826,236.393 166.659,234.393 162.5,232.5 Z"/></g>
<g><path style="opacity:1" fill="#f9ce26" d="M 378.5,229.5 C 375.809,233.19 372.476,236.19 368.5,238.5C 367.68,240.974 366.68,243.307 365.5,245.5C 362.14,248.194 359.14,251.194 356.5,254.5C 355.883,254.389 355.383,254.056 355,253.5C 350.666,259.262 345.499,264.095 339.5,268C 338.833,269 338.167,270 337.5,271C 335.168,270.351 332.834,270.518 330.5,271.5C 327.489,268.988 324.656,266.322 322,263.5C 321.75,256.412 320.917,249.412 319.5,242.5C 319.167,241.833 318.833,241.167 318.5,240.5C 322.162,240.277 325.495,239.277 328.5,237.5C 328.833,237.5 329.167,237.5 329.5,237.5C 338.324,236.391 346.991,234.558 355.5,232C 363.16,231.034 370.827,230.201 378.5,229.5 Z"/></g>
<g><path style="opacity:1" fill="#4d9848" d="M 139.5,229.5 C 137.517,229.157 136.183,229.824 135.5,231.5C 137.113,234.132 138.78,236.798 140.5,239.5C 140.291,240.086 139.957,240.586 139.5,241C 141.183,243.014 143.183,244.68 145.5,246C 145.167,246.333 144.833,246.667 144.5,247C 145.737,249.537 147.07,252.037 148.5,254.5C 147.56,257.132 147.393,259.798 148,262.5C 147.983,256.192 149.316,255.859 152,261.5C 153.147,260.542 154.147,260.875 155,262.5C 154.394,265.969 154.894,269.136 156.5,272C 153.346,277.616 151.179,277.45 150,271.5C 149.818,274.226 149.318,276.893 148.5,279.5C 146.674,279.92 144.674,279.92 142.5,279.5C 141.97,273.93 140.637,268.597 138.5,263.5C 138.833,260.995 139.5,258.328 140.5,255.5C 139.178,255.67 138.011,255.337 137,254.5C 136.665,250.264 135.832,246.264 134.5,242.5C 134.88,240.302 134.213,238.635 132.5,237.5C 132.384,234.14 132.051,230.807 131.5,227.5C 134.373,227.802 137.039,228.469 139.5,229.5 Z"/></g>
<g><path style="opacity:1" fill="#88ad3d" d="M 199.5,217.5 C 199.814,222.183 199.148,226.683 197.5,231C 198.465,233.474 198.632,235.974 198,238.5C 198.333,238.167 198.667,237.833 199,237.5C 204.242,239.801 209.742,241.301 215.5,242C 216.667,243.167 217.833,244.333 219,245.5C 221.929,244.724 223.596,246.057 224,249.5C 226.197,247.269 228.53,247.269 231,249.5C 231.667,246.167 231.667,242.833 231,239.5C 230.5,239 230,238.5 229.5,238C 232.464,238.772 234.798,240.605 236.5,243.5C 236.062,243.435 235.728,243.601 235.5,244C 237.898,245.636 239.065,247.802 239,250.5C 237.829,248.384 236.329,247.718 234.5,248.5C 240.518,255.132 239.185,257.799 230.5,256.5C 229.479,254.381 227.979,252.714 226,251.5C 225.667,251.833 225.333,252.167 225,252.5C 218.759,249.296 212.592,245.963 206.5,242.5C 203.346,240.974 200.013,240.307 196.5,240.5C 195.631,238.283 195.298,235.95 195.5,233.5C 195.99,227.844 197.323,222.51 199.5,217.5 Z"/></g>
<g><path style="opacity:1" fill="#78a770" d="M 132.5,237.5 C 134.213,238.635 134.88,240.302 134.5,242.5C 134.5,245.5 134.5,248.5 134.5,251.5C 133.479,247.02 132.813,242.353 132.5,237.5 Z"/></g>
<g><path style="opacity:1" fill="#d5bc34" d="M 328.5,237.5 C 325.495,239.277 322.162,240.277 318.5,240.5C 316.599,240.433 314.766,240.767 313,241.5C 305.1,245.575 297.6,250.241 290.5,255.5C 289.5,255.5 288.5,255.5 287.5,255.5C 288.785,253.548 290.451,251.882 292.5,250.5C 300.081,246.353 307.748,242.353 315.5,238.5C 316.209,239.404 317.209,239.737 318.5,239.5C 321.789,238.626 325.123,237.959 328.5,237.5 Z"/></g>
<g><path style="opacity:1" fill="#f3d148" d="M 380.5,235.5 C 380.167,241.5 379.833,247.5 379.5,253.5C 378.111,258.269 377.444,263.269 377.5,268.5C 376.585,273.61 375.585,278.61 374.5,283.5C 375.864,270.193 377.031,256.86 378,243.5C 378.546,240.621 379.379,237.954 380.5,235.5 Z"/></g>
<g><path style="opacity:1" fill="#51943e" d="M 203.5,244.5 C 216.866,249.525 228.199,257.525 237.5,268.5C 233.447,266.621 230.114,263.788 227.5,260C 224.727,257.718 221.727,257.218 218.5,258.5C 217.614,257.675 217.281,256.675 217.5,255.5C 215.833,255.5 214.167,255.5 212.5,255.5C 212.649,256.552 212.483,257.552 212,258.5C 211.667,258.167 211.333,257.833 211,257.5C 210.311,258.357 209.478,259.023 208.5,259.5C 205.557,258.756 202.557,258.256 199.5,258C 198.667,257.167 197.833,256.333 197,255.5C 196.257,257.441 196.424,259.274 197.5,261C 196.638,263.734 195.805,263.901 195,261.5C 194.626,266.619 194.792,271.452 195.5,276C 193.943,280.25 191.277,283.75 187.5,286.5C 183.872,283.209 180.205,279.875 176.5,276.5C 172.943,273.064 169.609,269.397 166.5,265.5C 170.509,266.497 173.509,268.831 175.5,272.5C 177.817,274.791 179.984,274.791 182,272.5C 185.776,276.014 189.109,275.348 192,270.5C 192.548,263.324 192.382,256.324 191.5,249.5C 191.977,248.522 192.643,247.689 193.5,247C 193.167,246.667 192.833,246.333 192.5,246C 193.52,244.444 194.853,243.278 196.5,242.5C 198.851,243.173 201.184,243.84 203.5,244.5 Z"/></g>
<g><path style="opacity:1" fill="#edb627" d="M 318.5,240.5 C 318.833,241.167 319.167,241.833 319.5,242.5C 315.085,242.709 314.585,244.042 318,246.5C 318.396,257.42 317.896,268.254 316.5,279C 317.849,279.772 318.682,280.939 319,282.5C 319.519,281.484 320.353,280.818 321.5,280.5C 323.392,281.473 325.392,282.14 327.5,282.5C 330.28,282.241 332.614,281.241 334.5,279.5C 330.148,285.18 325.481,290.514 320.5,295.5C 318.516,295.383 316.85,296.05 315.5,297.5C 315.167,297.167 314.833,296.833 314.5,296.5C 312.868,289.29 312.035,281.956 312,274.5C 311.333,275.167 310.667,275.833 310,276.5C 309.316,274.641 308.316,272.974 307,271.5C 306.667,271.833 306.333,272.167 306,272.5C 303.667,270.833 301.333,269.167 299,267.5C 298.517,266.552 298.351,265.552 298.5,264.5C 294.651,264.632 291.151,265.632 288,267.5C 287.963,265.026 287.13,263.026 285.5,261.5C 287.167,259.5 288.833,257.5 290.5,255.5C 297.6,250.241 305.1,245.575 313,241.5C 314.766,240.767 316.599,240.433 318.5,240.5 Z"/></g>
<g><path style="opacity:1" fill="#b7b536" d="M 256.5,202.5 C 257.331,213.993 257.831,225.659 258,237.5C 262.654,232.862 266.321,227.529 269,221.5C 269.654,220.304 270.154,220.304 270.5,221.5C 268.262,226.562 265.429,231.228 262,235.5C 261.274,240.239 261.607,244.905 263,249.5C 263.333,249.167 263.667,248.833 264,248.5C 264.667,249.833 265.667,250.833 267,251.5C 272.851,248.913 278.184,245.579 283,241.5C 283.117,242.95 282.95,244.45 282.5,246C 282.509,247.404 283.009,248.57 284,249.5C 285.398,248.949 286.732,248.616 288,248.5C 288.308,249.308 288.808,249.975 289.5,250.5C 290.687,249.347 291.687,249.347 292.5,250.5C 290.451,251.882 288.785,253.548 287.5,255.5C 284.629,257.536 281.629,259.37 278.5,261C 277.418,262.33 276.751,263.83 276.5,265.5C 275.851,261.368 275.684,257.035 276,252.5C 271.075,259.429 265.408,265.762 259,271.5C 258.617,270.944 258.117,270.611 257.5,270.5C 257.5,269.5 257.5,268.5 257.5,267.5C 257.037,245.836 256.704,224.169 256.5,202.5 Z"/></g>
<g><path style="opacity:1" fill="#4b8e3e" d="M 237.5,268.5 C 240.371,270.544 243.038,272.877 245.5,275.5C 246.833,278.167 248.167,280.833 249.5,283.5C 248.391,283.443 247.391,283.11 246.5,282.5C 245.454,279.873 244.12,277.373 242.5,275C 238.894,274.504 235.894,273.004 233.5,270.5C 230.167,271.333 226.833,272.167 223.5,273C 224.328,273.915 225.328,274.581 226.5,275C 222.479,274.997 218.479,274.497 214.5,273.5C 212.851,274.648 211.351,275.981 210,277.5C 208.301,276.594 206.467,276.261 204.5,276.5C 204.5,277.5 204.5,278.5 204.5,279.5C 202.54,280.138 200.707,280.138 199,279.5C 198.774,282.095 198.274,284.595 197.5,287C 197.957,287.414 198.291,287.914 198.5,288.5C 197.008,290.166 195.175,291.166 193,291.5C 185.797,288.486 180.297,283.486 176.5,276.5C 180.205,279.875 183.872,283.209 187.5,286.5C 191.277,283.75 193.943,280.25 195.5,276C 194.792,271.452 194.626,266.619 195,261.5C 195.805,263.901 196.638,263.734 197.5,261C 196.424,259.274 196.257,257.441 197,255.5C 197.833,256.333 198.667,257.167 199.5,258C 202.557,258.256 205.557,258.756 208.5,259.5C 209.478,259.023 210.311,258.357 211,257.5C 211.333,257.833 211.667,258.167 212,258.5C 212.483,257.552 212.649,256.552 212.5,255.5C 214.167,255.5 215.833,255.5 217.5,255.5C 217.281,256.675 217.614,257.675 218.5,258.5C 221.727,257.218 224.727,257.718 227.5,260C 230.114,263.788 233.447,266.621 237.5,268.5 Z"/></g>
<g><path style="opacity:1" fill="#7ea43b" d="M 196.5,240.5 C 200.013,240.307 203.346,240.974 206.5,242.5C 212.592,245.963 218.759,249.296 225,252.5C 225.333,252.167 225.667,251.833 226,251.5C 227.979,252.714 229.479,254.381 230.5,256.5C 239.185,257.799 240.518,255.132 234.5,248.5C 236.329,247.718 237.829,248.384 239,250.5C 239.065,247.802 237.898,245.636 235.5,244C 235.728,243.601 236.062,243.435 236.5,243.5C 240.478,247.604 244.978,250.938 250,253.5C 251.156,252.498 251.656,251.498 251.5,250.5C 252.583,250.461 253.583,250.127 254.5,249.5C 255.491,253.445 255.824,257.445 255.5,261.5C 252.703,259.205 250.036,256.705 247.5,254C 246.833,253.333 246.167,253.333 245.5,254C 247.833,256.333 250.167,258.667 252.5,261C 250.277,261.652 249.11,263.152 249,265.5C 246.426,264.703 244.259,265.537 242.5,268C 243.991,270.308 244.991,272.808 245.5,275.5C 243.038,272.877 240.371,270.544 237.5,268.5C 228.199,257.525 216.866,249.525 203.5,244.5C 201.388,242.794 199.055,241.461 196.5,240.5 Z"/></g>
<g><path style="opacity:1" fill="#489348" d="M 135.5,231.5 C 145.945,241.273 155.278,251.939 163.5,263.5C 160.168,261 157.334,258 155,254.5C 154.487,259.13 156.32,262.463 160.5,264.5C 163.19,268.848 165.524,273.515 167.5,278.5C 172.394,281.422 173.727,285.255 171.5,290C 168.342,291.469 165.009,292.469 161.5,293C 162.448,293.483 163.448,293.649 164.5,293.5C 164.5,294.5 164.5,295.5 164.5,296.5C 165.675,296.281 166.675,296.614 167.5,297.5C 165.851,298.648 164.351,299.981 163,301.5C 162.508,302.549 162.674,303.549 163.5,304.5C 161.099,307.413 159.766,307.079 159.5,303.5C 157.876,303.36 156.71,304.027 156,305.5C 154.644,304.62 153.144,304.286 151.5,304.5C 151.66,302.801 151.494,301.134 151,299.5C 150.801,301.402 149.967,302.902 148.5,304C 149.328,304.915 150.328,305.581 151.5,306C 150.107,307.171 149.273,308.671 149,310.5C 147.613,306.512 146.113,302.512 144.5,298.5C 145.479,296.721 145.146,295.055 143.5,293.5C 144.228,291.845 144.395,290.179 144,288.5C 143.667,289.167 143.333,289.833 143,290.5C 142.938,286.593 141.771,283.093 139.5,280C 139.645,279.228 139.978,278.561 140.5,278C 139.256,270.574 137.256,263.407 134.5,256.5C 134.5,254.833 134.5,253.167 134.5,251.5C 134.5,248.5 134.5,245.5 134.5,242.5C 135.832,246.264 136.665,250.264 137,254.5C 138.011,255.337 139.178,255.67 140.5,255.5C 139.5,258.328 138.833,260.995 138.5,263.5C 140.637,268.597 141.97,273.93 142.5,279.5C 144.674,279.92 146.674,279.92 148.5,279.5C 149.318,276.893 149.818,274.226 150,271.5C 151.179,277.45 153.346,277.616 156.5,272C 154.894,269.136 154.394,265.969 155,262.5C 154.147,260.875 153.147,260.542 152,261.5C 149.316,255.859 147.983,256.192 148,262.5C 147.393,259.798 147.56,257.132 148.5,254.5C 147.07,252.037 145.737,249.537 144.5,247C 144.833,246.667 145.167,246.333 145.5,246C 143.183,244.68 141.183,243.014 139.5,241C 139.957,240.586 140.291,240.086 140.5,239.5C 138.78,236.798 137.113,234.132 135.5,231.5 Z"/></g>
<g><path style="opacity:1" fill="#fcf2cf" d="M 379.5,253.5 C 379.556,258.731 378.889,263.731 377.5,268.5C 377.444,263.269 378.111,258.269 379.5,253.5 Z"/></g>
<g><path style="opacity:1" fill="#7b9a37" d="M 255.5,261.5 C 256.048,263.626 256.715,265.626 257.5,267.5C 257.5,268.5 257.5,269.5 257.5,270.5C 257.5,277.5 257.5,284.5 257.5,291.5C 257.771,293.38 257.104,294.713 255.5,295.5C 255.785,293.712 255.452,292.045 254.5,290.5C 253.55,287.58 251.884,285.247 249.5,283.5C 248.167,280.833 246.833,278.167 245.5,275.5C 244.991,272.808 243.991,270.308 242.5,268C 244.259,265.537 246.426,264.703 249,265.5C 249.11,263.152 250.277,261.652 252.5,261C 250.167,258.667 247.833,256.333 245.5,254C 246.167,253.333 246.833,253.333 247.5,254C 250.036,256.705 252.703,259.205 255.5,261.5 Z"/></g>
<g><path style="opacity:1" fill="#e5a727" d="M 285.5,261.5 C 287.13,263.026 287.963,265.026 288,267.5C 291.151,265.632 294.651,264.632 298.5,264.5C 298.351,265.552 298.517,266.552 299,267.5C 301.333,269.167 303.667,270.833 306,272.5C 306.333,272.167 306.667,271.833 307,271.5C 308.316,272.974 309.316,274.641 310,276.5C 310.667,275.833 311.333,275.167 312,274.5C 312.035,281.956 312.868,289.29 314.5,296.5C 314.833,296.833 315.167,297.167 315.5,297.5C 316.85,296.05 318.516,295.383 320.5,295.5C 319.213,298.235 317.047,299.902 314,300.5C 312.472,296.361 311.472,292.028 311,287.5C 309.366,289.88 307.866,292.213 306.5,294.5C 305.635,295.583 304.635,295.749 303.5,295C 302.877,291.383 300.877,289.05 297.5,288C 298.167,287.333 298.833,286.667 299.5,286C 296.833,285.333 294.167,284.667 291.5,284C 289.545,281.674 287.545,279.341 285.5,277C 282.901,276.231 280.401,276.398 278,277.5C 276.354,275.945 276.021,274.279 277,272.5C 276.184,273.823 275.017,274.489 273.5,274.5C 276.849,269.488 280.849,265.154 285.5,261.5 Z"/></g>
<g><path style="opacity:1" fill="#f9ca28" d="M 365.5,250.5 C 366.35,255.63 364.35,259.464 359.5,262C 360.167,262.667 360.833,263.333 361.5,264C 359.145,265.831 357.812,267.997 357.5,270.5C 358.833,271.167 360.167,271.833 361.5,272.5C 358.972,273.816 358.972,274.983 361.5,276C 359.527,276.495 357.527,276.662 355.5,276.5C 355.38,279.205 356.38,279.872 358.5,278.5C 359.484,281.428 359.817,284.428 359.5,287.5C 363.03,286.989 366.196,287.656 369,289.5C 370.316,286.312 370.816,282.978 370.5,279.5C 371.5,279.5 372.5,279.5 373.5,279.5C 373.5,280.833 373.5,282.167 373.5,283.5C 371.904,285.832 370.738,288.499 370,291.5C 369.824,295.688 369.324,299.688 368.5,303.5C 368.703,301.61 368.037,300.11 366.5,299C 364.19,298.503 361.857,298.337 359.5,298.5C 359.5,297.5 359.5,296.5 359.5,295.5C 357.833,295.5 356.167,295.5 354.5,295.5C 354.714,291.743 353.714,291.076 351.5,293.5C 349.076,292.577 347.076,291.077 345.5,289C 348.167,288.333 348.167,287.667 345.5,287C 346.833,285.667 348.167,284.333 349.5,283C 348.874,282.25 348.374,281.416 348,280.5C 347.667,280.833 347.333,281.167 347,281.5C 346.506,279.866 346.34,278.199 346.5,276.5C 347.822,276.67 348.989,276.337 350,275.5C 350.82,271.2 352.32,267.2 354.5,263.5C 357.968,258.828 361.635,254.495 365.5,250.5 Z"/></g>
<g><path style="opacity:1" fill="#a6a333" d="M 276.5,265.5 C 273.779,268.877 271.113,272.21 268.5,275.5C 267.647,277.893 265.981,279.226 263.5,279.5C 261.841,283.469 260.175,287.469 258.5,291.5C 258.167,291.5 257.833,291.5 257.5,291.5C 257.5,284.5 257.5,277.5 257.5,270.5C 258.117,270.611 258.617,270.944 259,271.5C 265.408,265.762 271.075,259.429 276,252.5C 275.684,257.035 275.851,261.368 276.5,265.5 Z"/></g>
<g><path style="opacity:1" fill="#d3ab30" d="M 287.5,255.5 C 288.5,255.5 289.5,255.5 290.5,255.5C 288.833,257.5 287.167,259.5 285.5,261.5C 280.849,265.154 276.849,269.488 273.5,274.5C 272.292,275.234 270.959,275.567 269.5,275.5C 269.167,275.5 268.833,275.5 268.5,275.5C 271.113,272.21 273.779,268.877 276.5,265.5C 276.751,263.83 277.418,262.33 278.5,261C 281.629,259.37 284.629,257.536 287.5,255.5 Z"/></g>
<g><path style="opacity:1" fill="#f4c028" d="M 319.5,242.5 C 320.917,249.412 321.75,256.412 322,263.5C 324.656,266.322 327.489,268.988 330.5,271.5C 332.834,270.518 335.168,270.351 337.5,271C 338.167,270 338.833,269 339.5,268C 345.499,264.095 350.666,259.262 355,253.5C 355.383,254.056 355.883,254.389 356.5,254.5C 349.002,262.643 342.002,270.977 335.5,279.5C 335.167,279.5 334.833,279.5 334.5,279.5C 332.614,281.241 330.28,282.241 327.5,282.5C 325.392,282.14 323.392,281.473 321.5,280.5C 320.353,280.818 319.519,281.484 319,282.5C 318.682,280.939 317.849,279.772 316.5,279C 317.896,268.254 318.396,257.42 318,246.5C 314.585,244.042 315.085,242.709 319.5,242.5 Z"/></g>
<g><path style="opacity:1" fill="#45863f" d="M 163.5,263.5 C 164.5,264.167 165.5,264.833 166.5,265.5C 169.609,269.397 172.943,273.064 176.5,276.5C 180.297,283.486 185.797,288.486 193,291.5C 195.175,291.166 197.008,290.166 198.5,288.5C 198.291,287.914 197.957,287.414 197.5,287C 198.274,284.595 198.774,282.095 199,279.5C 200.707,280.138 202.54,280.138 204.5,279.5C 204.5,278.5 204.5,277.5 204.5,276.5C 206.467,276.261 208.301,276.594 210,277.5C 211.351,275.981 212.851,274.648 214.5,273.5C 218.479,274.497 222.479,274.997 226.5,275C 225.328,274.581 224.328,273.915 223.5,273C 226.833,272.167 230.167,271.333 233.5,270.5C 235.894,273.004 238.894,274.504 242.5,275C 244.12,277.373 245.454,279.873 246.5,282.5C 244.547,281.538 242.714,281.205 241,281.5C 239.314,284.022 237.981,283.689 237,280.5C 234,281.5 232,283.5 231,286.5C 229.314,283.978 227.981,284.311 227,287.5C 225.595,285.893 223.928,284.56 222,283.5C 220.345,284.542 219.179,285.875 218.5,287.5C 216.884,286.885 215.551,285.885 214.5,284.5C 213.086,285.624 211.586,286.624 210,287.5C 210.584,292.435 208.751,294.102 204.5,292.5C 204.5,294.5 204.5,296.5 204.5,298.5C 203.603,299.598 202.77,299.598 202,298.5C 200.956,299.623 200.29,300.956 200,302.5C 196.833,300 193.667,297.5 190.5,295C 186.21,294.077 181.877,293.577 177.5,293.5C 178.609,292.71 179.942,292.21 181.5,292C 180.62,290.644 180.286,289.144 180.5,287.5C 179.325,287.719 178.325,287.386 177.5,286.5C 172.543,278.553 166.877,271.219 160.5,264.5C 156.32,262.463 154.487,259.13 155,254.5C 157.334,258 160.168,261 163.5,263.5 Z"/></g>
<g><path style="opacity:1" fill="#f9ce27" d="M 380.5,230.5 C 380.5,232.167 380.5,233.833 380.5,235.5C 379.379,237.954 378.546,240.621 378,243.5C 377.031,256.86 375.864,270.193 374.5,283.5C 374.167,283.5 373.833,283.5 373.5,283.5C 373.5,282.167 373.5,280.833 373.5,279.5C 372.5,279.5 371.5,279.5 370.5,279.5C 370.816,282.978 370.316,286.312 369,289.5C 366.196,287.656 363.03,286.989 359.5,287.5C 359.817,284.428 359.484,281.428 358.5,278.5C 356.38,279.872 355.38,279.205 355.5,276.5C 357.527,276.662 359.527,276.495 361.5,276C 358.972,274.983 358.972,273.816 361.5,272.5C 360.167,271.833 358.833,271.167 357.5,270.5C 357.812,267.997 359.145,265.831 361.5,264C 360.833,263.333 360.167,262.667 359.5,262C 364.35,259.464 366.35,255.63 365.5,250.5C 368.939,242.719 373.939,236.052 380.5,230.5 Z"/></g>
<g><path style="opacity:1" fill="#dd9b28" d="M 320.5,295.5 C 321.496,295.586 322.329,295.252 323,294.5C 323.617,295.449 323.451,296.282 322.5,297C 324.167,297.333 325.833,297.667 327.5,298C 324.899,298.92 322.232,299.587 319.5,300C 317.667,302.998 315.334,305.498 312.5,307.5C 312.631,306.624 312.298,305.957 311.5,305.5C 309.575,310.107 306.242,312.773 301.5,313.5C 301.233,311.035 300.566,308.701 299.5,306.5C 298.961,304.495 298.295,302.495 297.5,300.5C 294.978,301.515 292.644,302.849 290.5,304.5C 289.201,303.91 288.368,302.91 288,301.5C 287.195,303.901 286.362,303.734 285.5,301C 286.167,300.667 286.833,300.333 287.5,300C 286.257,298.846 285.257,297.512 284.5,296C 282.336,295.63 280.336,294.796 278.5,293.5C 277.117,296.076 276.283,295.742 276,292.5C 275.275,293.059 274.442,293.392 273.5,293.5C 271.265,290.9 268.598,288.9 265.5,287.5C 266.523,283.411 267.857,279.411 269.5,275.5C 270.959,275.567 272.292,275.234 273.5,274.5C 275.017,274.489 276.184,273.823 277,272.5C 276.021,274.279 276.354,275.945 278,277.5C 280.401,276.398 282.901,276.231 285.5,277C 287.545,279.341 289.545,281.674 291.5,284C 294.167,284.667 296.833,285.333 299.5,286C 298.833,286.667 298.167,287.333 297.5,288C 300.877,289.05 302.877,291.383 303.5,295C 304.635,295.749 305.635,295.583 306.5,294.5C 307.866,292.213 309.366,289.88 311,287.5C 311.472,292.028 312.472,296.361 314,300.5C 317.047,299.902 319.213,298.235 320.5,295.5 Z"/></g>
<g><path style="opacity:1" fill="#42803c" d="M 246.5,282.5 C 247.391,283.11 248.391,283.443 249.5,283.5C 251.884,285.247 253.55,287.58 254.5,290.5C 255.452,292.045 255.785,293.712 255.5,295.5C 254.833,296.167 254.167,296.833 253.5,297.5C 253.301,292.797 250.801,290.131 246,289.5C 243.294,290.89 240.461,292.056 237.5,293C 236.638,295.734 235.805,295.901 235,293.5C 234,294.833 233,294.833 232,293.5C 231.535,294.931 230.701,296.097 229.5,297C 225.391,297.665 221.391,298.498 217.5,299.5C 217.649,298.448 217.483,297.448 217,296.5C 215.984,297.634 215.317,297.301 215,295.5C 214.389,297.75 213.056,299.417 211,300.5C 209.983,297.972 208.816,297.972 207.5,300.5C 206.304,300.154 206.304,299.654 207.5,299C 206.552,298.517 205.552,298.351 204.5,298.5C 204.5,296.5 204.5,294.5 204.5,292.5C 208.751,294.102 210.584,292.435 210,287.5C 211.586,286.624 213.086,285.624 214.5,284.5C 215.551,285.885 216.884,286.885 218.5,287.5C 219.179,285.875 220.345,284.542 222,283.5C 223.928,284.56 225.595,285.893 227,287.5C 227.981,284.311 229.314,283.978 231,286.5C 232,283.5 234,281.5 237,280.5C 237.981,283.689 239.314,284.022 241,281.5C 242.714,281.205 244.547,281.538 246.5,282.5 Z"/></g>
<g><path style="opacity:1" fill="#ca9c31" d="M 268.5,275.5 C 268.833,275.5 269.167,275.5 269.5,275.5C 267.857,279.411 266.523,283.411 265.5,287.5C 264.728,288.694 263.728,289.694 262.5,290.5C 261.596,291.209 261.263,292.209 261.5,293.5C 260.5,293.5 259.5,293.5 258.5,293.5C 258.5,292.833 258.5,292.167 258.5,291.5C 260.175,287.469 261.841,283.469 263.5,279.5C 265.981,279.226 267.647,277.893 268.5,275.5 Z"/></g>
<g><path style="opacity:1" fill="#f8c429" d="M 378.5,229.5 C 379.492,229.328 380.158,229.662 380.5,230.5C 373.939,236.052 368.939,242.719 365.5,250.5C 361.635,254.495 357.968,258.828 354.5,263.5C 352.32,267.2 350.82,271.2 350,275.5C 348.989,276.337 347.822,276.67 346.5,276.5C 346.34,278.199 346.506,279.866 347,281.5C 347.333,281.167 347.667,280.833 348,280.5C 348.374,281.416 348.874,282.25 349.5,283C 348.167,284.333 346.833,285.667 345.5,287C 348.167,287.667 348.167,288.333 345.5,289C 347.076,291.077 349.076,292.577 351.5,293.5C 353.714,291.076 354.714,291.743 354.5,295.5C 356.167,295.5 357.833,295.5 359.5,295.5C 359.5,296.5 359.5,297.5 359.5,298.5C 361.857,298.337 364.19,298.503 366.5,299C 368.037,300.11 368.703,301.61 368.5,303.5C 366.857,305.973 364.69,307.973 362,309.5C 359.655,307.486 357.655,305.153 356,302.5C 355.5,303.667 354.667,304.5 353.5,305C 355.869,305.536 357.869,306.703 359.5,308.5C 359.813,310.52 360.146,312.52 360.5,314.5C 359.624,314.369 358.957,314.702 358.5,315.5C 359.544,317.768 359.711,320.101 359,322.5C 358.229,319.238 356.896,316.238 355,313.5C 354.167,316 353,316.167 351.5,314C 353.977,312.295 355.311,310.295 355.5,308C 351.158,307.622 346.992,306.789 343,305.5C 338.304,308.083 336.304,306.749 337,301.5C 337.98,300.019 339.147,298.685 340.5,297.5C 334.585,293.522 334.418,289.522 340,285.5C 340.533,282.495 341.7,279.828 343.5,277.5C 343.338,275.473 343.505,273.473 344,271.5C 349.357,265.145 355.023,259.145 361,253.5C 362.323,250.691 363.823,248.025 365.5,245.5C 366.68,243.307 367.68,240.974 368.5,238.5C 372.476,236.19 375.809,233.19 378.5,229.5 Z"/></g>
<g><path style="opacity:1" fill="#d59228" d="M 265.5,287.5 C 268.598,288.9 271.265,290.9 273.5,293.5C 274.442,293.392 275.275,293.059 276,292.5C 276.283,295.742 277.117,296.076 278.5,293.5C 280.336,294.796 282.336,295.63 284.5,296C 285.257,297.512 286.257,298.846 287.5,300C 286.833,300.333 286.167,300.667 285.5,301C 286.362,303.734 287.195,303.901 288,301.5C 288.368,302.91 289.201,303.91 290.5,304.5C 292.644,302.849 294.978,301.515 297.5,300.5C 298.295,302.495 298.961,304.495 299.5,306.5C 297.876,306.64 296.71,305.973 296,304.5C 297.04,309.61 296.54,314.61 294.5,319.5C 293.522,319.023 292.689,318.357 292,317.5C 291.601,317.728 291.435,318.062 291.5,318.5C 290.141,317.993 289.141,316.993 288.5,315.5C 287.82,309.322 284.487,305.489 278.5,304C 276.951,302.786 275.785,301.286 275,299.5C 274.667,300.167 274.333,300.833 274,301.5C 270.961,300.397 268.127,298.897 265.5,297C 263.829,295.157 262.829,292.991 262.5,290.5C 263.728,289.694 264.728,288.694 265.5,287.5 Z"/></g>
<g><path style="opacity:1" fill="#cd8c29" d="M 262.5,290.5 C 262.829,292.991 263.829,295.157 265.5,297C 268.127,298.897 270.961,300.397 274,301.5C 274.333,300.833 274.667,300.167 275,299.5C 275.785,301.286 276.951,302.786 278.5,304C 284.487,305.489 287.82,309.322 288.5,315.5C 289.141,316.993 290.141,317.993 291.5,318.5C 290.791,319.404 289.791,319.737 288.5,319.5C 288.357,321.262 288.691,322.929 289.5,324.5C 289,324.833 288.5,325.167 288,325.5C 286.324,322.871 284.824,320.204 283.5,317.5C 283.5,316.167 283.5,314.833 283.5,313.5C 281.549,313.773 280.049,313.107 279,311.5C 278.667,311.833 278.333,312.167 278,312.5C 275.725,310.767 273.558,308.933 271.5,307C 270.216,306.316 269.049,306.483 268,307.5C 266.346,304.879 264.513,302.379 262.5,300C 261.552,299.517 260.552,299.351 259.5,299.5C 259.768,297.901 259.434,296.568 258.5,295.5C 258.5,294.833 258.5,294.167 258.5,293.5C 259.5,293.5 260.5,293.5 261.5,293.5C 261.263,292.209 261.596,291.209 262.5,290.5 Z"/></g>
<g><path style="opacity:1" fill="#3d7a3d" d="M 253.5,297.5 C 252.518,296.859 251.518,296.193 250.5,295.5C 249.264,296.246 247.93,296.579 246.5,296.5C 246.587,299.598 246.087,299.932 245,297.5C 244.369,300.641 242.702,301.641 240,300.5C 237.888,301.223 235.888,302.223 234,303.5C 233.127,303.265 232.293,302.931 231.5,302.5C 230.472,304.361 228.972,305.695 227,306.5C 225.287,313.019 221.621,314.686 216,311.5C 215,313.167 214,314.833 213,316.5C 211.527,316.868 210.027,316.368 208.5,315C 206.95,311.908 204.95,310.074 202.5,309.5C 201.504,309.586 200.671,309.252 200,308.5C 197.194,302.836 192.694,299.169 186.5,297.5C 186.209,296.351 185.376,295.684 184,295.5C 179.523,294.82 175.023,294.32 170.5,294C 172.81,293.503 175.143,293.337 177.5,293.5C 181.877,293.577 186.21,294.077 190.5,295C 193.667,297.5 196.833,300 200,302.5C 200.29,300.956 200.956,299.623 202,298.5C 202.77,299.598 203.603,299.598 204.5,298.5C 205.552,298.351 206.552,298.517 207.5,299C 206.304,299.654 206.304,300.154 207.5,300.5C 208.816,297.972 209.983,297.972 211,300.5C 213.056,299.417 214.389,297.75 215,295.5C 215.317,297.301 215.984,297.634 217,296.5C 217.483,297.448 217.649,298.448 217.5,299.5C 221.391,298.498 225.391,297.665 229.5,297C 230.701,296.097 231.535,294.931 232,293.5C 233,294.833 234,294.833 235,293.5C 235.805,295.901 236.638,295.734 237.5,293C 240.461,292.056 243.294,290.89 246,289.5C 250.801,290.131 253.301,292.797 253.5,297.5 Z"/></g>
<g><path style="opacity:1" fill="#f5c63c" d="M 373.5,283.5 C 373.833,283.5 374.167,283.5 374.5,283.5C 372.426,301.401 366.426,317.734 356.5,332.5C 356.704,328.479 358.037,324.979 360.5,322C 361.566,319.329 361.566,316.829 360.5,314.5C 360.146,312.52 359.813,310.52 359.5,308.5C 357.869,306.703 355.869,305.536 353.5,305C 354.667,304.5 355.5,303.667 356,302.5C 357.655,305.153 359.655,307.486 362,309.5C 364.69,307.973 366.857,305.973 368.5,303.5C 369.324,299.688 369.824,295.688 370,291.5C 370.738,288.499 371.904,285.832 373.5,283.5 Z"/></g>
<g><path style="opacity:1" fill="#9e8438" d="M 257.5,291.5 C 257.833,291.5 258.167,291.5 258.5,291.5C 258.5,292.167 258.5,292.833 258.5,293.5C 258.5,294.167 258.5,294.833 258.5,295.5C 258.371,297.216 258.038,298.883 257.5,300.5C 255.674,305.103 253.841,309.77 252,314.5C 251.506,316.134 251.34,317.801 251.5,319.5C 251.167,319.5 250.833,319.5 250.5,319.5C 250.421,315.798 250.754,312.132 251.5,308.5C 253.3,304.298 254.633,299.965 255.5,295.5C 257.104,294.713 257.771,293.38 257.5,291.5 Z"/></g>
<g><path style="opacity:1" fill="#428b4b" d="M 134.5,256.5 C 137.256,263.407 139.256,270.574 140.5,278C 139.978,278.561 139.645,279.228 139.5,280C 141.771,283.093 142.938,286.593 143,290.5C 143.333,289.833 143.667,289.167 144,288.5C 144.395,290.179 144.228,291.845 143.5,293.5C 145.146,295.055 145.479,296.721 144.5,298.5C 146.113,302.512 147.613,306.512 149,310.5C 149.273,308.671 150.107,307.171 151.5,306C 150.328,305.581 149.328,304.915 148.5,304C 149.967,302.902 150.801,301.402 151,299.5C 151.494,301.134 151.66,302.801 151.5,304.5C 153.144,304.286 154.644,304.62 156,305.5C 156.71,304.027 157.876,303.36 159.5,303.5C 159.766,307.079 161.099,307.413 163.5,304.5C 162.674,303.549 162.508,302.549 163,301.5C 164.351,299.981 165.851,298.648 167.5,297.5C 166.675,296.614 165.675,296.281 164.5,296.5C 164.5,295.5 164.5,294.5 164.5,293.5C 163.448,293.649 162.448,293.483 161.5,293C 165.009,292.469 168.342,291.469 171.5,290C 173.727,285.255 172.394,281.422 167.5,278.5C 165.524,273.515 163.19,268.848 160.5,264.5C 166.877,271.219 172.543,278.553 177.5,286.5C 178.325,287.386 179.325,287.719 180.5,287.5C 180.286,289.144 180.62,290.644 181.5,292C 179.942,292.21 178.609,292.71 177.5,293.5C 175.143,293.337 172.81,293.503 170.5,294C 175.023,294.32 179.523,294.82 184,295.5C 185.376,295.684 186.209,296.351 186.5,297.5C 185.35,296.15 184.683,296.316 184.5,298C 188.312,301.145 191.812,304.645 195,308.5C 196.128,310.345 196.628,312.345 196.5,314.5C 194.712,314.215 193.045,314.548 191.5,315.5C 191.709,316.086 192.043,316.586 192.5,317C 190.563,317.122 189.23,317.955 188.5,319.5C 187.942,321.593 186.609,323.093 184.5,324C 185.747,325.494 185.747,326.994 184.5,328.5C 182.775,327.985 181.108,327.318 179.5,326.5C 180.167,325.833 180.833,325.167 181.5,324.5C 181.167,324.167 180.833,323.833 180.5,323.5C 179.01,325.126 177.51,326.792 176,328.5C 172.785,326.744 169.285,326.577 165.5,328C 163.508,328.574 162.008,329.741 161,331.5C 159.711,329.447 158.378,327.447 157,325.5C 156.583,326.756 155.75,327.423 154.5,327.5C 149.97,320.432 146.47,312.765 144,304.5C 139.864,288.683 136.697,272.683 134.5,256.5 Z"/></g>
<g><path style="opacity:1" fill="#f4b72a" d="M 365.5,245.5 C 363.823,248.025 362.323,250.691 361,253.5C 355.023,259.145 349.357,265.145 344,271.5C 343.505,273.473 343.338,275.473 343.5,277.5C 341.629,277.859 340.129,278.859 339,280.5C 335.426,285.431 333.26,290.598 332.5,296C 333.91,296.368 334.91,297.201 335.5,298.5C 332.684,300.225 330.35,302.392 328.5,305C 329.093,306.882 330.427,307.882 332.5,308C 338.167,308.333 343.833,308.667 349.5,309C 347.167,309.333 344.833,309.667 342.5,310C 340.279,312.277 337.613,313.777 334.5,314.5C 334.579,315.93 334.246,317.264 333.5,318.5C 335.415,319.192 337.415,320.525 339.5,322.5C 340.309,324.071 340.643,325.738 340.5,327.5C 341.5,327.5 342.5,327.5 343.5,327.5C 343.5,328.5 343.5,329.5 343.5,330.5C 345.451,330.773 346.951,330.107 348,328.5C 349.385,329.551 350.385,330.884 351,332.5C 351.805,330.099 352.638,330.266 353.5,333C 354.448,333.483 355.448,333.649 356.5,333.5C 354.183,337.146 351.516,340.48 348.5,343.5C 347.5,343.5 346.5,343.5 345.5,343.5C 343.065,341.413 340.732,339.08 338.5,336.5C 337.675,335.614 336.675,335.281 335.5,335.5C 335.5,333.833 335.5,332.167 335.5,330.5C 334.167,330.5 332.833,330.5 331.5,330.5C 331.621,326.557 330.121,323.557 327,321.5C 326.506,319.866 326.34,318.199 326.5,316.5C 330.222,316.139 333.222,314.472 335.5,311.5C 336.609,310.71 337.942,310.21 339.5,310C 333.167,309.667 326.833,309.333 320.5,309C 319.231,306.861 319.231,304.695 320.5,302.5C 324.042,300.94 327.375,299.107 330.5,297C 328.139,296.803 326.472,295.636 325.5,293.5C 328.862,289.808 332.195,286.141 335.5,282.5C 336.776,281.386 336.776,280.386 335.5,279.5C 342.002,270.977 349.002,262.643 356.5,254.5C 359.14,251.194 362.14,248.194 365.5,245.5 Z"/></g>
<g><path style="opacity:1" fill="#f7bd2a" d="M 343.5,277.5 C 341.7,279.828 340.533,282.495 340,285.5C 334.418,289.522 334.585,293.522 340.5,297.5C 339.147,298.685 337.98,300.019 337,301.5C 336.304,306.749 338.304,308.083 343,305.5C 346.992,306.789 351.158,307.622 355.5,308C 355.311,310.295 353.977,312.295 351.5,314C 353,316.167 354.167,316 355,313.5C 356.896,316.238 358.229,319.238 359,322.5C 359.711,320.101 359.544,317.768 358.5,315.5C 358.957,314.702 359.624,314.369 360.5,314.5C 361.566,316.829 361.566,319.329 360.5,322C 358.037,324.979 356.704,328.479 356.5,332.5C 356.5,332.833 356.5,333.167 356.5,333.5C 355.448,333.649 354.448,333.483 353.5,333C 352.638,330.266 351.805,330.099 351,332.5C 350.385,330.884 349.385,329.551 348,328.5C 346.951,330.107 345.451,330.773 343.5,330.5C 343.5,329.5 343.5,328.5 343.5,327.5C 342.5,327.5 341.5,327.5 340.5,327.5C 340.643,325.738 340.309,324.071 339.5,322.5C 337.415,320.525 335.415,319.192 333.5,318.5C 334.246,317.264 334.579,315.93 334.5,314.5C 337.613,313.777 340.279,312.277 342.5,310C 344.833,309.667 347.167,309.333 349.5,309C 343.833,308.667 338.167,308.333 332.5,308C 330.427,307.882 329.093,306.882 328.5,305C 330.35,302.392 332.684,300.225 335.5,298.5C 334.91,297.201 333.91,296.368 332.5,296C 333.26,290.598 335.426,285.431 339,280.5C 340.129,278.859 341.629,277.859 343.5,277.5 Z"/></g>
<g><path style="opacity:1" fill="#c3812a" d="M 258.5,295.5 C 259.434,296.568 259.768,297.901 259.5,299.5C 260.552,299.351 261.552,299.517 262.5,300C 264.513,302.379 266.346,304.879 268,307.5C 269.049,306.483 270.216,306.316 271.5,307C 273.558,308.933 275.725,310.767 278,312.5C 278.333,312.167 278.667,311.833 279,311.5C 280.049,313.107 281.549,313.773 283.5,313.5C 283.5,314.833 283.5,316.167 283.5,317.5C 283.334,322.179 283.501,326.845 284,331.5C 284.645,332.646 285.478,333.646 286.5,334.5C 285.807,335.518 285.141,336.518 284.5,337.5C 283.207,336.158 282.374,334.491 282,332.5C 281.517,333.448 281.351,334.448 281.5,335.5C 279.473,335.662 277.473,335.495 275.5,335C 275.167,332 273.5,330.333 270.5,330C 270.957,329.586 271.291,329.086 271.5,328.5C 266.84,321.854 262.673,314.854 259,307.5C 258.243,309.315 257.41,310.981 256.5,312.5C 256.833,308.5 257.167,304.5 257.5,300.5C 258.038,298.883 258.371,297.216 258.5,295.5 Z"/></g>
<g><path style="opacity:1" fill="#f1a92b" d="M 334.5,279.5 C 334.833,279.5 335.167,279.5 335.5,279.5C 336.776,280.386 336.776,281.386 335.5,282.5C 332.195,286.141 328.862,289.808 325.5,293.5C 326.472,295.636 328.139,296.803 330.5,297C 327.375,299.107 324.042,300.94 320.5,302.5C 319.231,304.695 319.231,306.861 320.5,309C 326.833,309.333 333.167,309.667 339.5,310C 337.942,310.21 336.609,310.71 335.5,311.5C 328.022,313.484 321.355,316.984 315.5,322C 316.108,324.184 315.441,326.184 313.5,328C 314.622,330.124 316.122,331.957 318,333.5C 318.333,333.167 318.667,332.833 319,332.5C 320.162,334.824 321.329,337.158 322.5,339.5C 323.5,340.833 324.5,340.833 325.5,339.5C 326.68,342.098 328.68,343.764 331.5,344.5C 331.291,345.086 330.957,345.586 330.5,346C 333.246,347.881 335.246,350.381 336.5,353.5C 337.004,350.658 338.671,349.325 341.5,349.5C 341.351,348.448 341.517,347.448 342,346.5C 343.518,345.837 344.685,344.837 345.5,343.5C 346.5,343.5 347.5,343.5 348.5,343.5C 340.936,352.404 331.936,359.404 321.5,364.5C 320.852,362.914 320.352,361.247 320,359.5C 318.73,361.836 317.23,361.836 315.5,359.5C 314.878,356.63 314.211,353.796 313.5,351C 316.956,349.519 320.289,347.852 323.5,346C 316.077,345.833 309.744,345 304.5,343.5C 304.523,341.073 305.023,338.74 306,336.5C 307.918,335.458 309.751,334.292 311.5,333C 309.32,330.755 306.987,328.755 304.5,327C 305.717,324.632 306.551,322.132 307,319.5C 312.971,314.791 319.804,312.125 327.5,311.5C 322.1,311.131 317.1,310.131 312.5,308.5C 312.5,308.167 312.5,307.833 312.5,307.5C 315.334,305.498 317.667,302.998 319.5,300C 322.232,299.587 324.899,298.92 327.5,298C 325.833,297.667 324.167,297.333 322.5,297C 323.451,296.282 323.617,295.449 323,294.5C 322.329,295.252 321.496,295.586 320.5,295.5C 325.481,290.514 330.148,285.18 334.5,279.5 Z"/></g>
<g><path style="opacity:1" fill="#f5b129" d="M 335.5,311.5 C 333.222,314.472 330.222,316.139 326.5,316.5C 326.34,318.199 326.506,319.866 327,321.5C 330.121,323.557 331.621,326.557 331.5,330.5C 332.833,330.5 334.167,330.5 335.5,330.5C 335.5,332.167 335.5,333.833 335.5,335.5C 336.675,335.281 337.675,335.614 338.5,336.5C 340.732,339.08 343.065,341.413 345.5,343.5C 344.685,344.837 343.518,345.837 342,346.5C 341.517,347.448 341.351,348.448 341.5,349.5C 338.671,349.325 337.004,350.658 336.5,353.5C 335.246,350.381 333.246,347.881 330.5,346C 330.957,345.586 331.291,345.086 331.5,344.5C 328.68,343.764 326.68,342.098 325.5,339.5C 324.5,340.833 323.5,340.833 322.5,339.5C 321.329,337.158 320.162,334.824 319,332.5C 318.667,332.833 318.333,333.167 318,333.5C 316.122,331.957 314.622,330.124 313.5,328C 315.441,326.184 316.108,324.184 315.5,322C 321.355,316.984 328.022,313.484 335.5,311.5 Z"/></g>
<g><path style="opacity:1" fill="#3a703b" d="M 253.5,297.5 C 254.167,296.833 254.833,296.167 255.5,295.5C 254.633,299.965 253.3,304.298 251.5,308.5C 250.754,312.132 250.421,315.798 250.5,319.5C 250.167,319.5 249.833,319.5 249.5,319.5C 249.167,319.5 248.833,319.5 248.5,319.5C 248.5,317.167 248.5,314.833 248.5,312.5C 249.855,310.32 249.689,308.32 248,306.5C 245.777,308.723 244.444,311.389 244,314.5C 243.667,313.5 243.333,312.5 243,311.5C 240.367,313.233 237.534,314.566 234.5,315.5C 233.029,314.619 232.196,313.286 232,311.5C 230.283,312.988 229.116,314.821 228.5,317C 225.383,318.973 222.216,320.807 219,322.5C 218.333,319.833 217.667,319.833 217,322.5C 216.667,320.833 216.333,319.167 216,317.5C 215.781,318.938 215.281,320.271 214.5,321.5C 213.817,321.137 213.15,320.804 212.5,320.5C 207.039,318.316 201.372,316.816 195.5,316C 199.53,315.674 203.53,315.674 207.5,316C 205.946,313.629 204.279,311.463 202.5,309.5C 204.95,310.074 206.95,311.908 208.5,315C 210.027,316.368 211.527,316.868 213,316.5C 214,314.833 215,313.167 216,311.5C 221.621,314.686 225.287,313.019 227,306.5C 228.972,305.695 230.472,304.361 231.5,302.5C 232.293,302.931 233.127,303.265 234,303.5C 235.888,302.223 237.888,301.223 240,300.5C 242.702,301.641 244.369,300.641 245,297.5C 246.087,299.932 246.587,299.598 246.5,296.5C 247.93,296.579 249.264,296.246 250.5,295.5C 251.518,296.193 252.518,296.859 253.5,297.5 Z"/></g>
<g><path style="opacity:1" fill="#356b3e" d="M 248.5,312.5 C 246.364,318.667 243.698,324.667 240.5,330.5C 239.998,331.521 239.332,331.688 238.5,331C 237.228,329.693 236.228,328.193 235.5,326.5C 234.516,329.428 234.183,332.428 234.5,335.5C 231.369,334.908 229.036,335.908 227.5,338.5C 226.454,336.46 224.787,335.127 222.5,334.5C 221.137,335.198 219.971,335.198 219,334.5C 217.294,335.308 216.461,336.641 216.5,338.5C 213.882,336.726 210.882,335.726 207.5,335.5C 207.389,334.883 207.056,334.383 206.5,334C 210.924,332.191 215.59,331.191 220.5,331C 217.593,327.605 214.927,324.105 212.5,320.5C 213.15,320.804 213.817,321.137 214.5,321.5C 215.281,320.271 215.781,318.938 216,317.5C 216.333,319.167 216.667,320.833 217,322.5C 217.667,319.833 218.333,319.833 219,322.5C 222.216,320.807 225.383,318.973 228.5,317C 229.116,314.821 230.283,312.988 232,311.5C 232.196,313.286 233.029,314.619 234.5,315.5C 237.534,314.566 240.367,313.233 243,311.5C 243.333,312.5 243.667,313.5 244,314.5C 244.444,311.389 245.777,308.723 248,306.5C 249.689,308.32 249.855,310.32 248.5,312.5 Z"/></g>
<g><path style="opacity:1" fill="#d68a26" d="M 299.5,306.5 C 300.566,308.701 301.233,311.035 301.5,313.5C 306.242,312.773 309.575,310.107 311.5,305.5C 312.298,305.957 312.631,306.624 312.5,307.5C 312.5,307.833 312.5,308.167 312.5,308.5C 309.721,309.617 309.388,310.783 311.5,312C 308.333,312.5 306.5,314.333 306,317.5C 301.622,320.377 298.122,324.044 295.5,328.5C 292.086,332.713 288.42,336.713 284.5,340.5C 284.5,339.5 284.5,338.5 284.5,337.5C 285.141,336.518 285.807,335.518 286.5,334.5C 285.478,333.646 284.645,332.646 284,331.5C 283.501,326.845 283.334,322.179 283.5,317.5C 284.824,320.204 286.324,322.871 288,325.5C 288.5,325.167 289,324.833 289.5,324.5C 288.691,322.929 288.357,321.262 288.5,319.5C 289.791,319.737 290.791,319.404 291.5,318.5C 291.435,318.062 291.601,317.728 292,317.5C 292.689,318.357 293.522,319.023 294.5,319.5C 296.54,314.61 297.04,309.61 296,304.5C 296.71,305.973 297.876,306.64 299.5,306.5 Z"/></g>
<g><path style="opacity:1" fill="#ef9f2a" d="M 312.5,308.5 C 317.1,310.131 322.1,311.131 327.5,311.5C 319.804,312.125 312.971,314.791 307,319.5C 306.551,322.132 305.717,324.632 304.5,327C 306.987,328.755 309.32,330.755 311.5,333C 309.751,334.292 307.918,335.458 306,336.5C 305.023,338.74 304.523,341.073 304.5,343.5C 309.744,345 316.077,345.833 323.5,346C 320.289,347.852 316.956,349.519 313.5,351C 314.211,353.796 314.878,356.63 315.5,359.5C 317.23,361.836 318.73,361.836 320,359.5C 320.352,361.247 320.852,362.914 321.5,364.5C 317.797,366.679 313.797,368.345 309.5,369.5C 308.292,366.674 306.792,364.008 305,361.5C 304.256,358.129 304.756,354.963 306.5,352C 309.72,350.223 313.053,348.723 316.5,347.5C 310.478,346.794 304.478,346.128 298.5,345.5C 297.646,344.478 296.646,343.645 295.5,343C 298.789,341.59 300.456,339.09 300.5,335.5C 303.794,335.741 306.794,334.908 309.5,333C 304.845,332.501 300.179,332.334 295.5,332.5C 295.5,331.167 295.5,329.833 295.5,328.5C 298.122,324.044 301.622,320.377 306,317.5C 306.5,314.333 308.333,312.5 311.5,312C 309.388,310.783 309.721,309.617 312.5,308.5 Z"/></g>
<g><path style="opacity:1" fill="#41874d" d="M 188.5,319.5 C 190.582,319.472 192.416,320.139 194,321.5C 193.917,324.119 193.75,326.786 193.5,329.5C 189.108,330.198 184.774,330.365 180.5,330C 179.319,332.476 179.319,335.309 180.5,338.5C 177.017,338.691 173.684,339.357 170.5,340.5C 170.649,341.552 170.483,342.552 170,343.5C 166.286,342.198 163.453,340.532 161.5,338.5C 158.421,335.35 156.087,331.683 154.5,327.5C 155.75,327.423 156.583,326.756 157,325.5C 158.378,327.447 159.711,329.447 161,331.5C 162.008,329.741 163.508,328.574 165.5,328C 169.285,326.577 172.785,326.744 176,328.5C 177.51,326.792 179.01,325.126 180.5,323.5C 180.833,323.833 181.167,324.167 181.5,324.5C 180.833,325.167 180.167,325.833 179.5,326.5C 181.108,327.318 182.775,327.985 184.5,328.5C 185.747,326.994 185.747,325.494 184.5,324C 186.609,323.093 187.942,321.593 188.5,319.5 Z"/></g>
<g><path style="opacity:1" fill="#305e3b" d="M 248.5,312.5 C 248.5,314.833 248.5,317.167 248.5,319.5C 248.5,329.5 248.5,339.5 248.5,349.5C 247.206,348.71 246.039,347.71 245,346.5C 244.996,349.792 243.83,352.458 241.5,354.5C 239.738,352.3 237.404,351.133 234.5,351C 229.845,350.501 225.179,350.334 220.5,350.5C 217.167,350.5 213.833,350.5 210.5,350.5C 208.708,349.691 206.708,349.191 204.5,349C 213.533,348.749 222.533,348.249 231.5,347.5C 230.948,345.669 230.948,344.003 231.5,342.5C 230.151,341.091 228.818,339.757 227.5,338.5C 229.036,335.908 231.369,334.908 234.5,335.5C 234.183,332.428 234.516,329.428 235.5,326.5C 236.228,328.193 237.228,329.693 238.5,331C 239.332,331.688 239.998,331.521 240.5,330.5C 243.698,324.667 246.364,318.667 248.5,312.5 Z"/></g>
<g><path style="opacity:1" fill="#b7732b" d="M 284.5,337.5 C 284.5,338.5 284.5,339.5 284.5,340.5C 282.833,342.5 281.167,344.5 279.5,346.5C 275.5,350.833 271.5,355.167 267.5,359.5C 268.555,351.606 267.721,343.939 265,336.5C 263,335.167 261,333.833 259,332.5C 258.536,333.094 258.369,333.761 258.5,334.5C 257.795,331.772 257.128,328.939 256.5,326C 255.911,324.127 256.578,322.46 258.5,321C 255.574,318.604 254.907,315.771 256.5,312.5C 257.41,310.981 258.243,309.315 259,307.5C 262.673,314.854 266.84,321.854 271.5,328.5C 271.291,329.086 270.957,329.586 270.5,330C 273.5,330.333 275.167,332 275.5,335C 277.473,335.495 279.473,335.662 281.5,335.5C 281.351,334.448 281.517,333.448 282,332.5C 282.374,334.491 283.207,336.158 284.5,337.5 Z"/></g>
<g><path style="opacity:1" fill="#3b7e4b" d="M 186.5,297.5 C 192.694,299.169 197.194,302.836 200,308.5C 200.671,309.252 201.504,309.586 202.5,309.5C 204.279,311.463 205.946,313.629 207.5,316C 203.53,315.674 199.53,315.674 195.5,316C 201.372,316.816 207.039,318.316 212.5,320.5C 214.927,324.105 217.593,327.605 220.5,331C 215.59,331.191 210.924,332.191 206.5,334C 207.056,334.383 207.389,334.883 207.5,335.5C 206.022,335.238 204.689,335.571 203.5,336.5C 205.205,338.303 207.038,338.969 209,338.5C 210.959,340.526 211.793,342.692 211.5,345C 209.913,345.862 208.246,346.529 206.5,347C 198.833,347.333 191.167,347.667 183.5,348C 188.902,349.387 190.902,352.887 189.5,358.5C 187.708,358.366 186.042,358.699 184.5,359.5C 175.279,354.282 167.612,347.282 161.5,338.5C 163.453,340.532 166.286,342.198 170,343.5C 170.483,342.552 170.649,341.552 170.5,340.5C 173.684,339.357 177.017,338.691 180.5,338.5C 179.319,335.309 179.319,332.476 180.5,330C 184.774,330.365 189.108,330.198 193.5,329.5C 193.75,326.786 193.917,324.119 194,321.5C 192.416,320.139 190.582,319.472 188.5,319.5C 189.23,317.955 190.563,317.122 192.5,317C 192.043,316.586 191.709,316.086 191.5,315.5C 193.045,314.548 194.712,314.215 196.5,314.5C 196.628,312.345 196.128,310.345 195,308.5C 191.812,304.645 188.312,301.145 184.5,298C 184.683,296.316 185.35,296.15 186.5,297.5 Z"/></g>
<g><path style="opacity:1" fill="#a9712e" d="M 257.5,300.5 C 257.167,304.5 256.833,308.5 256.5,312.5C 254.907,315.771 255.574,318.604 258.5,321C 256.578,322.46 255.911,324.127 256.5,326C 257.128,328.939 257.795,331.772 258.5,334.5C 258.688,336.103 258.188,337.437 257,338.5C 255.887,337.289 254.72,337.289 253.5,338.5C 252.83,336.709 252.163,335.042 251.5,333.5C 251.5,328.833 251.5,324.167 251.5,319.5C 251.34,317.801 251.506,316.134 252,314.5C 253.841,309.77 255.674,305.103 257.5,300.5 Z"/></g>
<g><path style="opacity:1" fill="#367449" d="M 227.5,338.5 C 228.818,339.757 230.151,341.091 231.5,342.5C 230.948,344.003 230.948,345.669 231.5,347.5C 222.533,348.249 213.533,348.749 204.5,349C 206.708,349.191 208.708,349.691 210.5,350.5C 204.052,350.435 204.052,351.268 210.5,353C 212.164,356.136 214.831,357.303 218.5,356.5C 218.48,358.143 219.147,359.476 220.5,360.5C 220.167,361.167 219.833,361.833 219.5,362.5C 215.876,363.859 212.876,366.026 210.5,369C 208.527,369.495 206.527,369.662 204.5,369.5C 196.968,367.734 190.301,364.401 184.5,359.5C 186.042,358.699 187.708,358.366 189.5,358.5C 190.902,352.887 188.902,349.387 183.5,348C 191.167,347.667 198.833,347.333 206.5,347C 208.246,346.529 209.913,345.862 211.5,345C 211.793,342.692 210.959,340.526 209,338.5C 207.038,338.969 205.205,338.303 203.5,336.5C 204.689,335.571 206.022,335.238 207.5,335.5C 210.882,335.726 213.882,336.726 216.5,338.5C 216.461,336.641 217.294,335.308 219,334.5C 219.971,335.198 221.137,335.198 222.5,334.5C 224.787,335.127 226.454,336.46 227.5,338.5 Z"/></g>
<g><path style="opacity:1" fill="#a2632c" d="M 267.5,359.5 C 264.092,362.901 261.092,366.568 258.5,370.5C 259.439,361.827 257.606,353.827 253,346.5C 251.925,342.23 251.425,337.897 251.5,333.5C 252.163,335.042 252.83,336.709 253.5,338.5C 254.72,337.289 255.887,337.289 257,338.5C 258.188,337.437 258.688,336.103 258.5,334.5C 258.369,333.761 258.536,333.094 259,332.5C 261,333.833 263,335.167 265,336.5C 267.721,343.939 268.555,351.606 267.5,359.5 Z"/></g>
<g><path style="opacity:1" fill="#2d5940" d="M 248.5,349.5 C 248.199,352.716 248.199,355.882 248.5,359C 250.349,362.161 251.516,365.661 252,369.5C 253.011,370.337 254.178,370.67 255.5,370.5C 255.5,370.833 255.5,371.167 255.5,371.5C 251.19,372.08 246.857,372.414 242.5,372.5C 241.127,372.657 239.793,372.49 238.5,372C 239.167,371.667 239.833,371.333 240.5,371C 239.233,369.204 239.233,367.371 240.5,365.5C 239.833,364.833 239.167,364.167 238.5,363.5C 240.224,362.967 241.891,361.801 243.5,360C 242.833,359.333 242.167,358.667 241.5,358C 242.791,356.708 242.791,355.542 241.5,354.5C 243.83,352.458 244.996,349.792 245,346.5C 246.039,347.71 247.206,348.71 248.5,349.5 Z"/></g>
<g><path style="opacity:1" fill="#524f2f" d="M 250.5,343.5 C 252.768,349.906 254.435,356.573 255.5,363.5C 253.955,362.77 253.122,361.437 253,359.5C 251.202,354.311 250.369,348.978 250.5,343.5 Z"/></g>
<g><path style="opacity:1" fill="#8b6538" d="M 249.5,319.5 C 249.833,319.5 250.167,319.5 250.5,319.5C 250.833,319.5 251.167,319.5 251.5,319.5C 251.5,324.167 251.5,328.833 251.5,333.5C 251.425,337.897 251.925,342.23 253,346.5C 257.606,353.827 259.439,361.827 258.5,370.5C 258.5,370.833 258.5,371.167 258.5,371.5C 257.5,371.5 256.5,371.5 255.5,371.5C 255.5,371.167 255.5,370.833 255.5,370.5C 256.103,368.374 256.103,366.041 255.5,363.5C 254.435,356.573 252.768,349.906 250.5,343.5C 249.834,335.517 249.501,327.517 249.5,319.5 Z"/></g>
<g><path style="opacity:1" fill="#306647" d="M 220.5,350.5 C 225.179,350.334 229.845,350.501 234.5,351C 237.404,351.133 239.738,352.3 241.5,354.5C 242.791,355.542 242.791,356.708 241.5,358C 242.167,358.667 242.833,359.333 243.5,360C 241.891,361.801 240.224,362.967 238.5,363.5C 239.167,364.167 239.833,364.833 240.5,365.5C 239.233,367.371 239.233,369.204 240.5,371C 239.833,371.333 239.167,371.667 238.5,372C 239.793,372.49 241.127,372.657 242.5,372.5C 237.695,373.487 232.695,373.821 227.5,373.5C 227.321,371.046 227.987,368.879 229.5,367C 228.993,364.459 228.326,361.959 227.5,359.5C 225.446,357.541 223.113,356.041 220.5,355C 220.966,353.701 220.966,352.201 220.5,350.5 Z"/></g>
<g><path style="opacity:1" fill="#ed952a" d="M 295.5,332.5 C 300.179,332.334 304.845,332.501 309.5,333C 306.794,334.908 303.794,335.741 300.5,335.5C 300.456,339.09 298.789,341.59 295.5,343C 296.646,343.645 297.646,344.478 298.5,345.5C 304.478,346.128 310.478,346.794 316.5,347.5C 313.053,348.723 309.72,350.223 306.5,352C 304.756,354.963 304.256,358.129 305,361.5C 306.792,364.008 308.292,366.674 309.5,369.5C 304.705,371.392 299.705,372.392 294.5,372.5C 292.735,371.539 290.735,371.205 288.5,371.5C 288.64,369.876 287.973,368.71 286.5,368C 288.036,366.401 288.536,364.567 288,362.5C 287.667,362.833 287.333,363.167 287,363.5C 282.384,360.899 282.884,359.566 288.5,359.5C 288.281,358.325 288.614,357.325 289.5,356.5C 294.111,352.361 299.444,349.527 305.5,348C 298.508,347.5 291.508,347.334 284.5,347.5C 286.235,341.096 289.902,336.096 295.5,332.5 Z"/></g>
<g><path style="opacity:1" fill="#e17c2a" d="M 279.5,348.5 C 283.846,348.334 288.179,348.501 292.5,349C 285.907,350.906 281.074,355.072 278,361.5C 277.031,365.569 276.197,369.235 275.5,372.5C 273.856,372.714 272.356,372.38 271,371.5C 270.765,368.01 270.765,364.344 271,360.5C 274.065,356.053 276.898,352.053 279.5,348.5 Z"/></g>
<g><path style="opacity:1" fill="#346e4c" d="M 210.5,350.5 C 213.833,350.5 217.167,350.5 220.5,350.5C 220.966,352.201 220.966,353.701 220.5,355C 223.113,356.041 225.446,357.541 227.5,359.5C 228.326,361.959 228.993,364.459 229.5,367C 227.987,368.879 227.321,371.046 227.5,373.5C 219.321,374.294 211.654,372.961 204.5,369.5C 206.527,369.662 208.527,369.495 210.5,369C 212.876,366.026 215.876,363.859 219.5,362.5C 219.833,361.833 220.167,361.167 220.5,360.5C 219.147,359.476 218.48,358.143 218.5,356.5C 214.831,357.303 212.164,356.136 210.5,353C 204.052,351.268 204.052,350.435 210.5,350.5 Z"/></g>
<g><path style="opacity:1" fill="#d77734" d="M 279.5,346.5 C 279.5,347.167 279.5,347.833 279.5,348.5C 276.898,352.053 274.065,356.053 271,360.5C 270.765,364.344 270.765,368.01 271,371.5C 272.356,372.38 273.856,372.714 275.5,372.5C 275.5,372.833 275.5,373.167 275.5,373.5C 269.769,373.316 264.102,372.65 258.5,371.5C 258.5,371.167 258.5,370.833 258.5,370.5C 261.092,366.568 264.092,362.901 267.5,359.5C 271.5,355.167 275.5,350.833 279.5,346.5 Z"/></g>
<g><path style="opacity:1" fill="#344d35" d="M 248.5,319.5 C 248.833,319.5 249.167,319.5 249.5,319.5C 249.501,327.517 249.834,335.517 250.5,343.5C 250.369,348.978 251.202,354.311 253,359.5C 253.122,361.437 253.955,362.77 255.5,363.5C 256.103,366.041 256.103,368.374 255.5,370.5C 254.178,370.67 253.011,370.337 252,369.5C 251.516,365.661 250.349,362.161 248.5,359C 248.199,355.882 248.199,352.716 248.5,349.5C 248.5,339.5 248.5,329.5 248.5,319.5 Z"/></g>
<g><path style="opacity:1" fill="#e8892b" d="M 295.5,328.5 C 295.5,329.833 295.5,331.167 295.5,332.5C 289.902,336.096 286.235,341.096 284.5,347.5C 291.508,347.334 298.508,347.5 305.5,348C 299.444,349.527 294.111,352.361 289.5,356.5C 288.614,357.325 288.281,358.325 288.5,359.5C 282.884,359.566 282.384,360.899 287,363.5C 287.333,363.167 287.667,362.833 288,362.5C 288.536,364.567 288.036,366.401 286.5,368C 287.973,368.71 288.64,369.876 288.5,371.5C 290.735,371.205 292.735,371.539 294.5,372.5C 288.355,373.49 282.022,373.823 275.5,373.5C 275.5,373.167 275.5,372.833 275.5,372.5C 276.197,369.235 277.031,365.569 278,361.5C 281.074,355.072 285.907,350.906 292.5,349C 288.179,348.501 283.846,348.334 279.5,348.5C 279.5,347.833 279.5,347.167 279.5,346.5C 281.167,344.5 282.833,342.5 284.5,340.5C 288.42,336.713 292.086,332.713 295.5,328.5 Z"/></g>
</svg>
